<mxfile host="app.diagrams.net" modified="2022-01-16T06:11:49.090Z" agent="5.0 (Macintosh; Intel Mac OS X 10_15_7) AppleWebKit/537.36 (KHTML, like Gecko) Chrome/97.0.4692.71 Safari/537.36" etag="sSC-17ZOhQK_zCjv5XLk" version="15.3.7" type="github">
  <diagram id="I21M4l8D_oBENVoLi8B1" name="Page-1">
    <mxGraphModel dx="1298" dy="747" grid="1" gridSize="10" guides="1" tooltips="1" connect="1" arrows="1" fold="1" page="1" pageScale="1" pageWidth="827" pageHeight="1169" math="0" shadow="0">
      <root>
        <mxCell id="0" />
        <mxCell id="1" parent="0" />
        <mxCell id="V1WJd5ZhMPUM_hFj-JZH-7" style="edgeStyle=orthogonalEdgeStyle;rounded=0;orthogonalLoop=1;jettySize=auto;html=1;entryX=0.5;entryY=0;entryDx=0;entryDy=0;" edge="1" parent="1" source="V1WJd5ZhMPUM_hFj-JZH-1" target="V1WJd5ZhMPUM_hFj-JZH-2">
          <mxGeometry relative="1" as="geometry" />
        </mxCell>
        <mxCell id="V1WJd5ZhMPUM_hFj-JZH-23" style="edgeStyle=orthogonalEdgeStyle;rounded=0;orthogonalLoop=1;jettySize=auto;html=1;entryX=0.5;entryY=0;entryDx=0;entryDy=0;" edge="1" parent="1" source="V1WJd5ZhMPUM_hFj-JZH-1" target="V1WJd5ZhMPUM_hFj-JZH-18">
          <mxGeometry relative="1" as="geometry" />
        </mxCell>
        <mxCell id="V1WJd5ZhMPUM_hFj-JZH-35" style="edgeStyle=orthogonalEdgeStyle;rounded=0;orthogonalLoop=1;jettySize=auto;html=1;entryX=1;entryY=0.5;entryDx=0;entryDy=0;" edge="1" parent="1" source="V1WJd5ZhMPUM_hFj-JZH-1" target="V1WJd5ZhMPUM_hFj-JZH-33">
          <mxGeometry relative="1" as="geometry">
            <Array as="points">
              <mxPoint x="300" y="200" />
              <mxPoint x="300" y="360" />
            </Array>
          </mxGeometry>
        </mxCell>
        <mxCell id="V1WJd5ZhMPUM_hFj-JZH-1" value="Pod Spec Repository&amp;nbsp;" style="rounded=0;whiteSpace=wrap;html=1;" vertex="1" parent="1">
          <mxGeometry x="340" y="130" width="140" height="70" as="geometry" />
        </mxCell>
        <mxCell id="V1WJd5ZhMPUM_hFj-JZH-12" style="edgeStyle=orthogonalEdgeStyle;rounded=0;orthogonalLoop=1;jettySize=auto;html=1;exitX=0.5;exitY=1;exitDx=0;exitDy=0;entryX=0.5;entryY=0;entryDx=0;entryDy=0;" edge="1" parent="1" source="V1WJd5ZhMPUM_hFj-JZH-2" target="V1WJd5ZhMPUM_hFj-JZH-8">
          <mxGeometry relative="1" as="geometry" />
        </mxCell>
        <mxCell id="V1WJd5ZhMPUM_hFj-JZH-13" style="edgeStyle=orthogonalEdgeStyle;rounded=0;orthogonalLoop=1;jettySize=auto;html=1;entryX=0.888;entryY=-0.033;entryDx=0;entryDy=0;entryPerimeter=0;exitX=0.5;exitY=0;exitDx=0;exitDy=0;" edge="1" parent="1" source="V1WJd5ZhMPUM_hFj-JZH-10" target="V1WJd5ZhMPUM_hFj-JZH-9">
          <mxGeometry relative="1" as="geometry">
            <mxPoint x="570" y="350" as="sourcePoint" />
            <Array as="points">
              <mxPoint x="500" y="410" />
              <mxPoint x="405" y="410" />
              <mxPoint x="405" y="400" />
              <mxPoint x="431" y="400" />
            </Array>
          </mxGeometry>
        </mxCell>
        <mxCell id="V1WJd5ZhMPUM_hFj-JZH-14" style="edgeStyle=orthogonalEdgeStyle;rounded=0;orthogonalLoop=1;jettySize=auto;html=1;entryX=0.5;entryY=0;entryDx=0;entryDy=0;" edge="1" parent="1" source="V1WJd5ZhMPUM_hFj-JZH-2" target="V1WJd5ZhMPUM_hFj-JZH-11">
          <mxGeometry relative="1" as="geometry" />
        </mxCell>
        <mxCell id="V1WJd5ZhMPUM_hFj-JZH-2" value="Pod Repository 1" style="rounded=0;whiteSpace=wrap;html=1;" vertex="1" parent="1">
          <mxGeometry x="330" y="320" width="150" height="60" as="geometry" />
        </mxCell>
        <mxCell id="V1WJd5ZhMPUM_hFj-JZH-8" value="Tag 1.0.0" style="rounded=0;whiteSpace=wrap;html=1;" vertex="1" parent="1">
          <mxGeometry x="260" y="420" width="80" height="60" as="geometry" />
        </mxCell>
        <mxCell id="V1WJd5ZhMPUM_hFj-JZH-9" value="Tag 1.0.1" style="rounded=0;whiteSpace=wrap;html=1;" vertex="1" parent="1">
          <mxGeometry x="360" y="420" width="80" height="60" as="geometry" />
        </mxCell>
        <mxCell id="V1WJd5ZhMPUM_hFj-JZH-10" value="Tag 1.0.2" style="rounded=0;whiteSpace=wrap;html=1;" vertex="1" parent="1">
          <mxGeometry x="460" y="420" width="80" height="60" as="geometry" />
        </mxCell>
        <mxCell id="V1WJd5ZhMPUM_hFj-JZH-11" value="Tag 1..n" style="rounded=0;whiteSpace=wrap;html=1;" vertex="1" parent="1">
          <mxGeometry x="560" y="420" width="80" height="60" as="geometry" />
        </mxCell>
        <mxCell id="V1WJd5ZhMPUM_hFj-JZH-15" style="edgeStyle=orthogonalEdgeStyle;rounded=0;orthogonalLoop=1;jettySize=auto;html=1;exitX=0.5;exitY=1;exitDx=0;exitDy=0;entryX=0.5;entryY=0;entryDx=0;entryDy=0;" edge="1" parent="1" source="V1WJd5ZhMPUM_hFj-JZH-18" target="V1WJd5ZhMPUM_hFj-JZH-19">
          <mxGeometry relative="1" as="geometry" />
        </mxCell>
        <mxCell id="V1WJd5ZhMPUM_hFj-JZH-16" style="edgeStyle=orthogonalEdgeStyle;rounded=0;orthogonalLoop=1;jettySize=auto;html=1;entryX=0.888;entryY=-0.033;entryDx=0;entryDy=0;entryPerimeter=0;exitX=0.5;exitY=0;exitDx=0;exitDy=0;" edge="1" parent="1" source="V1WJd5ZhMPUM_hFj-JZH-21" target="V1WJd5ZhMPUM_hFj-JZH-20">
          <mxGeometry relative="1" as="geometry">
            <mxPoint x="870" y="170" as="sourcePoint" />
            <Array as="points">
              <mxPoint x="800" y="230" />
              <mxPoint x="705" y="230" />
              <mxPoint x="705" y="220" />
              <mxPoint x="731" y="220" />
            </Array>
          </mxGeometry>
        </mxCell>
        <mxCell id="V1WJd5ZhMPUM_hFj-JZH-17" style="edgeStyle=orthogonalEdgeStyle;rounded=0;orthogonalLoop=1;jettySize=auto;html=1;entryX=0.5;entryY=0;entryDx=0;entryDy=0;" edge="1" parent="1" source="V1WJd5ZhMPUM_hFj-JZH-18" target="V1WJd5ZhMPUM_hFj-JZH-22">
          <mxGeometry relative="1" as="geometry" />
        </mxCell>
        <mxCell id="V1WJd5ZhMPUM_hFj-JZH-18" value="Pod Repository 2" style="rounded=0;whiteSpace=wrap;html=1;" vertex="1" parent="1">
          <mxGeometry x="630" y="140" width="150" height="60" as="geometry" />
        </mxCell>
        <mxCell id="V1WJd5ZhMPUM_hFj-JZH-19" value="Tag 1.0.0" style="rounded=0;whiteSpace=wrap;html=1;" vertex="1" parent="1">
          <mxGeometry x="560" y="240" width="80" height="60" as="geometry" />
        </mxCell>
        <mxCell id="V1WJd5ZhMPUM_hFj-JZH-20" value="Tag 1.0.1" style="rounded=0;whiteSpace=wrap;html=1;" vertex="1" parent="1">
          <mxGeometry x="660" y="240" width="80" height="60" as="geometry" />
        </mxCell>
        <mxCell id="V1WJd5ZhMPUM_hFj-JZH-21" value="Tag 1.0.2" style="rounded=0;whiteSpace=wrap;html=1;" vertex="1" parent="1">
          <mxGeometry x="760" y="240" width="80" height="60" as="geometry" />
        </mxCell>
        <mxCell id="V1WJd5ZhMPUM_hFj-JZH-22" value="Tag 1..n" style="rounded=0;whiteSpace=wrap;html=1;" vertex="1" parent="1">
          <mxGeometry x="860" y="240" width="80" height="60" as="geometry" />
        </mxCell>
        <mxCell id="V1WJd5ZhMPUM_hFj-JZH-24" value="In PodFile Specify the Pod Spec url as srouce and Pod Version" style="text;html=1;strokeColor=none;fillColor=none;align=center;verticalAlign=middle;whiteSpace=wrap;rounded=0;" vertex="1" parent="1">
          <mxGeometry x="60" y="180" width="170" height="20" as="geometry" />
        </mxCell>
        <mxCell id="V1WJd5ZhMPUM_hFj-JZH-30" value="" style="rounded=0;whiteSpace=wrap;html=1;" vertex="1" parent="1">
          <mxGeometry x="30" y="230" width="150" height="260" as="geometry" />
        </mxCell>
        <mxCell id="V1WJd5ZhMPUM_hFj-JZH-34" style="edgeStyle=orthogonalEdgeStyle;rounded=0;orthogonalLoop=1;jettySize=auto;html=1;entryX=0;entryY=0.5;entryDx=0;entryDy=0;" edge="1" parent="1" source="V1WJd5ZhMPUM_hFj-JZH-31" target="V1WJd5ZhMPUM_hFj-JZH-1">
          <mxGeometry relative="1" as="geometry" />
        </mxCell>
        <mxCell id="V1WJd5ZhMPUM_hFj-JZH-31" value="Client App" style="rounded=0;whiteSpace=wrap;html=1;" vertex="1" parent="1">
          <mxGeometry x="40" y="250" width="120" height="60" as="geometry" />
        </mxCell>
        <mxCell id="V1WJd5ZhMPUM_hFj-JZH-32" value="Mac System" style="text;html=1;strokeColor=none;fillColor=none;align=center;verticalAlign=middle;whiteSpace=wrap;rounded=0;" vertex="1" parent="1">
          <mxGeometry x="60" y="500" width="80" height="20" as="geometry" />
        </mxCell>
        <mxCell id="V1WJd5ZhMPUM_hFj-JZH-33" value="Local CocoaPods" style="rounded=0;whiteSpace=wrap;html=1;" vertex="1" parent="1">
          <mxGeometry x="40" y="330" width="120" height="60" as="geometry" />
        </mxCell>
        <mxCell id="V1WJd5ZhMPUM_hFj-JZH-39" value="Add Remote Pod Spec in local cocoaPds" style="text;html=1;strokeColor=none;fillColor=none;align=center;verticalAlign=middle;whiteSpace=wrap;rounded=0;" vertex="1" parent="1">
          <mxGeometry x="199" y="324" width="100" height="20" as="geometry" />
        </mxCell>
      </root>
    </mxGraphModel>
  </diagram>
</mxfile>
